<?xml version="1.0" standalone="no"?>
<!DOCTYPE svg PUBLIC "-//W3C//DTD SVG 20010904//EN"
 "http://www.w3.org/TR/2001/REC-SVG-20010904/DTD/svg10.dtd">
<svg version="1.0" xmlns="http://www.w3.org/2000/svg"
 width="200.000000px" height="200.000000px" viewBox="0 0 200.000000 200.000000"
 preserveAspectRatio="xMidYMid meet">

<g transform="translate(0.000000,200.000000) scale(0.100000,-0.100000)"
fill="#000000" stroke="none">
<path d="M960 1980 c-11 -11 -20 -29 -20 -40 0 -11 9 -29 20 -40 11 -11 29
-20 40 -20 11 0 29 9 40 20 11 11 20 29 20 40 0 11 -9 29 -20 40 -11 11 -29
20 -40 20 -11 0 -29 -9 -40 -20z"/>
<path d="M964 1846 c-3 -8 -4 -25 -2 -38 2 -19 9 -23 38 -23 33 0 35 2 35 35
0 32 -3 35 -33 38 -21 2 -34 -2 -38 -12z"/>
<path d="M845 1723 c-259 -55 -491 -279 -560 -538 -74 -282 33 -589 270 -770
271 -208 620 -203 893 12 123 98 211 223 260 371 22 66 26 95 26 202 0 107 -4
136 -26 202 -123 371 -501 599 -863 521z m277 -77 c141 -30 297 -126 388 -239
129 -160 178 -365 130 -551 -90 -354 -453 -582 -790 -497 -205 51 -355 174
-446 366 -149 310 -25 681 286 858 44 25 149 62 200 70 56 9 169 6 232 -7z"/>
<path d="M957 1590 c-131 -155 -158 -796 -47 -1093 25 -66 64 -117 89 -117 56
0 124 168 147 363 l6 57 -29 0 -29 0 -18 -112 c-19 -125 -53 -223 -76 -223
-22 0 -57 97 -77 211 -24 139 -24 509 0 648 20 114 55 211 77 211 23 0 57 -98
76 -223 l18 -112 29 0 29 0 -6 58 c-17 143 -65 293 -108 339 -29 31 -51 29
-81 -7z"/>
<path d="M940 1132 l0 -32 93 0 c228 -1 507 -56 507 -100 0 -44 -286 -100
-510 -100 l-90 0 0 -32 0 -31 148 6 c200 8 366 38 453 82 46 23 79 55 79 75 0
9 -10 26 -22 37 -75 68 -250 109 -510 120 l-148 6 0 -31z"/>
<path d="M675 1134 c-202 -36 -322 -99 -289 -151 30 -49 132 -89 298 -118 117
-20 116 -20 116 14 0 28 0 28 -102 44 -118 19 -195 40 -223 62 -20 15 -20 15
0 30 28 22 105 43 223 62 102 16 102 16 102 44 0 34 -4 34 -125 13z"/>
<path d="M940 1000 l0 -63 103 6 c113 6 190 22 208 43 30 36 -49 63 -208 71
l-103 6 0 -63z m90 25 c26 -32 -13 -81 -47 -59 -35 22 -23 74 17 74 10 0 23
-7 30 -15z"/>
<path d="M770 1027 c-14 -7 -25 -19 -25 -27 0 -8 11 -20 25 -27 22 -11 25 -10
28 7 2 11 2 29 0 40 -3 17 -6 18 -28 7z"/>
<path d="M20 1040 c-11 -11 -20 -29 -20 -40 0 -26 34 -60 60 -60 26 0 60 34
60 60 0 26 -34 60 -60 60 -11 0 -29 -9 -40 -20z"/>
<path d="M1900 1040 c-11 -11 -20 -29 -20 -40 0 -11 9 -29 20 -40 11 -11 29
-20 40 -20 11 0 29 9 40 20 11 11 20 29 20 40 0 11 -9 29 -20 40 -11 11 -29
20 -40 20 -11 0 -29 -9 -40 -20z"/>
<path d="M144 1026 c-3 -8 -4 -25 -2 -38 2 -19 9 -23 38 -23 33 0 35 2 35 35
0 32 -3 35 -33 38 -21 2 -34 -2 -38 -12z"/>
<path d="M1784 1026 c-3 -8 -4 -25 -2 -38 2 -19 9 -23 38 -23 33 0 35 2 35 35
0 32 -3 35 -33 38 -21 2 -34 -2 -38 -12z"/>
<path d="M964 206 c-3 -8 -4 -25 -2 -38 2 -19 9 -23 38 -23 33 0 35 2 35 35 0
32 -3 35 -33 38 -21 2 -34 -2 -38 -12z"/>
<path d="M960 100 c-11 -11 -20 -29 -20 -40 0 -26 34 -60 60 -60 26 0 60 34
60 60 0 26 -34 60 -60 60 -11 0 -29 -9 -40 -20z"/>
</g>
</svg>
